<svg version="1.2" xmlns="http://www.w3.org/2000/svg" viewBox="0 0 294 65" width="294" height="65">
	<title>logo-svg</title>
	<style>
		.s0 { fill: #1b263b } 
	</style>
	<g id="Layer">
		<g id="Layer">
			<g id="Layer">
				<path id="Layer" fill-rule="evenodd" class="s0" d="m0.7 1.4h25.4q9.7 0 15.2 4.7 5.5 4.7 5.5 11.9 0 10.5-12.2 14.1 6.2 0.9 9.9 5.4 3.8 4.4 3.8 10.3 0 7.4-5.6 11.9-5.6 4.5-15.1 4.5h-26.9zm12.7 9.8v16.2h11.4q4.2 0 6.7-2.1 2.5-2.1 2.5-5.9 0-3.9-2.5-6.1-2.5-2.1-6.7-2.1zm0 43.3h12.8q4.2 0 6.8-2.3 2.5-2.2 2.5-6.3 0-4-2.6-6.4-2.6-2.3-6.8-2.3h-12.7z"/>
			</g>
		</g>
	</g>
	<g id="Layer">
		<g id="Layer">
			<g id="Layer">
				<path id="Layer" fill-rule="evenodd" class="s0" d="m101.3 64.9q-13.6 0-22.9-9.1-9.2-9.1-9.2-23.1 0-14 9.3-23.1 9.3-9.1 22.8-9.1 13.6 0 22.8 9.1 9.3 9.1 9.3 23.1 0 14-9.3 23.1-9.2 9.1-22.8 9.1zm13.9-17.3q5.3-5.6 5.3-14.9 0-9.4-5.3-15-5.4-5.6-13.9-5.6-8.6 0-13.9 5.7-5.4 5.6-5.4 14.9 0 9.3 5.4 14.9 5.3 5.7 13.9 5.7 8.5 0 13.9-5.7z"/>
			</g>
		</g>
	</g>
	<g id="Layer">
		<g id="Layer">
			<g id="Layer">
				<path id="Layer" fill-rule="evenodd" class="s0" d="m185.5 64.9q-13.6 0-22.8-9.1-9.3-9.1-9.3-23.1 0-14 9.3-23.1 9.3-9.1 22.9-9.1 13.5 0 22.8 9.1 9.3 9.1 9.3 23.1 0 14-9.3 23.1-9.3 9.1-22.9 9.1zm13.9-17.3q5.3-5.6 5.3-14.9 0-9.4-5.3-15-5.3-5.6-13.9-5.6-8.5 0-13.9 5.7-5.3 5.6-5.3 14.9 0 9.3 5.3 14.9 5.4 5.7 13.9 5.7 8.6 0 13.9-5.7z"/>
			</g>
		</g>
	</g>
	<g id="Layer">
		<g id="Layer">
			<g id="Layer">
				<path id="Layer" class="s0" d="m253.8 64.2h-12.6v-62.8h12.6v28.1l22.7-28.1h16.6l-27.3 31.5 27.3 31.3h-16.5l-22.8-27.9z"/>
			</g>
		</g>
	</g>
</svg>