<svg version="1.2" xmlns="http://www.w3.org/2000/svg" viewBox="0 0 752 557" width="752" height="557">
	<title>reading-svg</title>
	<style>
		.s0 { fill: #e6e6e6 } 
		.s1 { fill: #59949b } 
		.s2 { fill: #1b263b } 
		.s3 { fill: #ffb6b6 } 
		.s4 { fill: #2f2e41 } 
		.s5 { fill: #3f3d56 } 
		.s6 { fill: #f2f2f2 } 
		.s7 { fill: #cccccc } 
		.s8 { fill: #ffffff } 
		.s9 { fill: #cacaca } 
	</style>
	<path id="Layer" class="s0" d="m680.2 553.8h-159.3v-4.8c0-2.2 0.4-4.2 1.2-6.2 0.8-1.9 2-3.7 3.5-5.2 1.5-1.4 3.2-2.6 5.2-3.4 1.9-0.8 4-1.2 6.1-1.2h127.3c2.1 0 4.1 0.4 6.1 1.2 1.9 0.8 3.7 2 5.2 3.4 1.5 1.5 2.6 3.3 3.4 5.2 0.8 2 1.3 4 1.3 6.2v4.8c745.3 704.8 745.3 704.8 745.3 704.8z"/>
	<path id="Layer" class="s0" d="m593.7 109.8c2.4-7.4 3.7-15 3.8-22.8 0.2-7.7-0.8-15.5-2.8-22.9-2.1-7.5-5.2-14.6-9.3-21.2-4.1-6.5-9.1-12.5-15-17.6-23.3-20.8-55.4-25.8-83.8-13.2-25.7 11.4-31 30.2-31 54.8h-5.2c0-23.1 4.1-46.3 34-59.6 30.4-13.5 64.6-8.1 89.5 14.1 6.2 5.5 11.6 11.8 15.9 18.8 4.4 7 7.7 14.5 9.9 22.5 2.2 7.9 3.2 16.2 3.1 24.4-0.2 8.2-1.6 16.4-4.1 24.3-42.9 136.1-47.7 294.8 2.9 420.6l-4.8 1.9c-51-126.6-46.4-286.4-3.1-424.1z"/>
	<circle id="Layer" class="s0" cx="454.3" cy="125.6" r="18.3"/>
	<path id="Layer" class="s0" d="m426.2 157.5v-34.6h5.3v34.6c3.2 1.3 5.1 4.7 4.4 8-0.7 3.4-3.6 5.8-7 5.8-3.5 0-6.4-2.4-7.1-5.8-0.7-3.3 1.2-6.7 4.4-8z"/>
	<path id="Layer" class="s1" d="m400.1 96.3c0-4 0.8-7.9 2.3-11.5 1.5-3.7 3.7-7 6.5-9.7 2.8-2.8 6.1-5 9.8-6.6 3.6-1.5 7.5-2.2 11.5-2.3h49.6c7.9 0 15.6 3.2 21.2 8.8 5.6 5.7 8.8 13.3 8.8 21.3 0 7.9-3.2 15.6-8.8 21.2-5.6 5.6-13.3 8.8-21.2 8.8h-49.6c-4 0-7.9-0.8-11.5-2.3-3.7-1.5-7-3.7-9.8-6.5-2.8-2.8-5-6.1-6.5-9.7-1.5-3.7-2.3-7.6-2.3-11.5z"/>
	<path id="Layer" class="s2" d="m354.5 409.5c53.8 49.8 174.8-29.9 208 14.1 13.4 17.7 6.2 47-3 63.6-39.2 71.5-215.9 99.5-309.1 12.2-98-91.9-70.1-280.1 6.1-327.3 28.3-17.5 72.3-21.2 87.9-3 16.3 19-9.2 49.4-14.2 113.1-2.7 35-7.6 97.8 24.3 127.3z"/>
	<path id="Layer" class="s3" d="m388.7 250.5q1.3-0.6 2.8-0.7 1.5 0 2.9 0.5 1.4 0.6 2.4 1.6 1.1 1 1.7 2.4 0.5 1.2 0.6 2.5 0.1 1.3-0.2 2.5-0.3 1.3-1 2.3-0.7 1.1-1.8 1.9l-19.1 32.4-8.2-12.2 16.4-21.9q-0.1-0.1-0.2-0.2-0.1-0.2-0.2-0.3 0-0.1-0.1-0.3-0.1-0.1-0.1-0.3-0.6-1.4-0.7-2.9 0-1.5 0.6-3 0.5-1.4 1.6-2.5 1-1.1 2.4-1.7 0.1-0.1 0.2-0.1z"/>
	<path id="Layer" class="s1" d="m388.5 288.2c1.1 1-1.9 2.1-5.1 0.3-0.9-0.6-1.2-0.8-1.3-0.6-0.3 0.3 1.2 2.9 0.8 8.7-0.3 3.5-6 10-12.5 16.3-8.8 8.6-19.1 16.8-19.1 16.8l-3.6-2.9-37.7-30.2-6.3-8.8q0.2-1.3 0.5-2.6 0.2-1.3 0.6-2.6 0.3-1.2 0.7-2.5 0.4-1.3 0.8-2.5 0.6-1.8 1.2-3.5 0.7-1.7 1.4-3.4 0.7-1.6 1.5-3.3 0.8-1.7 1.6-3.3c1.1-2.4 2.3-4.6 3.5-6.7l20.2 22.2 16.9 18.7c0 0 5-7.9 8.8-10.1q0.2-0.1 0.3-0.2 0.2-0.1 0.4-0.2 0.2-0.1 0.5-0.1 0.2 0 0.4-0.1c3.8-0.1 4.1-2.2-0.4-6.8-4.5-4.6 1.2-0.3 5.2-1.6 3.9-1.2 0 0 0.8-3 0.8-3.1 12-9.3 12-9.3l0.5 0.4 8.4 7.5 2.4 2.1c0 0-2.6 7.2-3.4 8.7-0.7 1.6-1.1 1.7 0 2.6z"/>
	<path id="Layer" class="s3" d="m610.8 428.5l-43-1.6 0.6-16.4 42.8 6.9-0.4 11.1z"/>
	<path id="Layer" class="s4" d="m603 431.9l-0.4-17.9 7.7 0.3 12.3-16.5c0.6-0.8 1.4-1.4 2.4-1.7 1-0.3 2-0.3 3 0.1 0.9 0.3 1.8 1 2.3 1.8 0.6 0.8 0.9 1.8 0.9 2.9l-0.8 21.1-7.7 3.4 7.5 1.7-0.3 8z"/>
	<path id="Layer" class="s4" d="m388.8 377.3c0 0 172 26.2 175.8 27.5 3.8 1.3 3.2 1 8.1-1.9 4.8-2.8 1.3 0.1 6.4 2.4 5.1 2.4 13.9 2.4 13.9 2.4l-0.7 21.2-14.5 1.8c-13.7 9-72.3 5.6-72.3 5.6l-135.4-3.4z"/>
	<path id="Layer" class="s3" d="m548.6 423.6l-30.4-30.4 11.6-11.6 26.7 34.1-7.9 7.9z"/>
	<path id="Layer" class="s4" d="m540.6 416.8l11.9-13.4 5.4 5.4 20.2-3.7c1-0.2 2 0 2.9 0.4 1 0.4 1.7 1.2 2.2 2.1 0.4 0.9 0.6 1.9 0.5 2.9-0.2 1-0.7 1.9-1.4 2.6l-15 15.1-7.9-2.8 4.4 6.3-5.7 5.7z"/>
	<path id="Layer" class="s4" d="m362.1 356.6l8 15.4 57.3-46.7c0 0-0.3 0 0-1.4 17.4-9.3 31.4 4.8 31.4 4.8 0 0 85.7 60.1 86.8 59.8 1-0.2-13.5 22.5-13.5 22.5-15.5-8.2-85.7-43.2-85.7-43.2 0 0-33.8 47.9-36.3 46.5-2.6-1.3-5.5 1.1-5.2 6.2 0.4 5.1-11.6 8.3-11.6 8.3q-0.8 0.6-1.7 1.1c-31.5 19.2-72.1-3.1-73.7-39.9l-1.3-31.3z"/>
	<path id="Layer" class="s1" d="m370.6 319.5q-0.1 0.6-0.1 1.1-0.1 0.5-0.2 1.1 0 0.5-0.1 1-0.1 0.6-0.2 1.1-0.2 0.8-0.4 1.5-0.2 0.8-0.4 1.5-0.3 0.8-0.6 1.5-0.3 0.7-0.6 1.5c-0.2 0.4 0 2.1-4.1 9.1-4 7.1 1.1 4.1 4.1 9.3 3 5.3 0 2.9-3.4 6.2q-0.7 0.8-1.2 1.7-0.5 0.9-0.8 1.9-0.2 1-0.2 2 0 1 0.3 2c0.2 0.7-43.4 0.1-51.5-3-8-3-9.9-20.1-2.6-21.8 7.2-1.6-2.2-3.3-6.5-7.2-4.2-3.9 4.3-10.3 4.3-10.3 0 0-3.5-6-3.2-26.3q0-0.7 0-1.4 0.1-0.7 0.1-1.4 0.1-0.7 0.2-1.4 0.1-0.7 0.2-1.4 0.2-1.3 0.5-2.6 0.2-1.3 0.6-2.6 0.3-1.2 0.7-2.5 0.4-1.3 0.8-2.5 0.6-1.8 1.2-3.5 0.7-1.7 1.4-3.4 0.7-1.6 1.5-3.3 0.8-1.7 1.6-3.3c1.1-2.4 2.3-4.6 3.5-6.7q0.3-0.5 0.5-1c2.2-3.8 4.2-7 5.5-9 1.1-1.6 1.7-2.5 1.7-2.5l7.3-12.8 24.6 11.5-1.4 18.8 4.2 14.2 2 6.6 1.5 5 2.3 7.8c0 0-0.6 0 0.1 1.1q1.3 1.7 2.4 3.6 1.1 1.9 1.9 3.9 0.8 2 1.4 4.1 0.6 2.1 0.9 4.2 0.1 0.8 0.2 1.6 0 0.9 0.1 1.7 0 0.8 0 1.7-0.1 0.8-0.1 1.6z"/>
	<path id="Layer" class="s4" d="m441.5 321.5l-0.5-0.1-58.7-18.9 21.6-71c0.4-1.5 1.2-2.8 2.2-3.8 1-1.1 2.2-2 3.6-2.5 1.4-0.5 2.9-0.7 4.3-0.6 1.5 0.1 2.9 0.5 4.2 1.3l37.6 22.2c1.4 0.8 2.7 2 3.8 3.3 1.1 1.3 2 2.8 2.5 4.4 0.6 1.6 0.9 3.3 0.9 5 0 1.8-0.3 3.5-0.9 5.1z"/>
	<path id="Layer" class="s1" d="m441.7 326.1l-59.2-19.1 21.6-71c0.5-1.4 1.2-2.7 2.2-3.8 1-1.1 2.3-2 3.6-2.5 1.4-0.5 2.9-0.7 4.4-0.6 1.4 0.1 2.9 0.6 4.1 1.3l39.4 19.6c5.9 3.5 5.7 12.6 3 20z"/>
	<path id="Layer" class="s5" d="m435.8 331.2q-1.1 0.6-2.2 0.9-1.1 0.4-2.3 0.5-1.1 0.1-2.3 0-1.2-0.1-2.3-0.5l-37.8-12.2c-1.5-0.5-2.8-1.2-4-2.2-1.1-1-2.1-2.2-2.8-3.5-0.7-1.3-1.1-2.8-1.2-4.3-0.2-1.5 0-3 0.4-4.5l19-62.2c0.4-1.3 1-2.4 1.8-3.4 0.8-1 1.9-1.9 3-2.5 1.2-0.6 2.4-0.9 3.7-1 1.3-0.1 2.6 0 3.9 0.4l39.2 12.9c1.9 0.6 3.6 1.6 5.1 2.9 1.4 1.3 2.7 2.9 3.5 4.6 0.9 1.8 1.4 3.7 1.5 5.7 0.1 2-0.2 3.9-0.8 5.8l-20.3 56.5q-0.4 1-0.9 1.9-0.5 0.8-1.1 1.6-0.7 0.8-1.5 1.4-0.7 0.7-1.6 1.2z"/>
	<circle id="Layer" class="s3" cx="353.7" cy="205.2" r="27.1"/>
	<path id="Layer" class="s4" d="m260.7 229q-0.5-2-0.5-4 0-2.1 0.5-4 0.5-2 1.4-3.8c5.4 5.6 15.1 5.2 21.5 0.9 6.5-4.3 10.4-11.6 13.1-18.9 2.7-7.4 4.5-15 8.2-21.9 3.7-6.9 9.8-13 17.5-14.4 7.7-1.3 16.6 4 17.1 11.7 5.1-9.6 33-4.6 33 5.7 4.9 1.6 10 3.6 13 7.8 3 4.1 2.9 10.9-1.5 13.5q-0.6 0.4-1.2 0.6-0.6 0.2-1.2 0.4-0.6 0.1-1.3 0.1-0.6 0.1-1.3 0-0.1-0.8-0.1-1.6-0.1-0.8 0-1.6 0-0.8 0.1-1.6 0-0.7 0.2-1.5-0.4 0.7-0.8 1.4-0.4 0.7-0.7 1.4-0.3 0.7-0.6 1.5-0.3 0.7-0.5 1.5c-4.8-1.3-4.5-2.7-9.5-2.2-5.6 0.5-9.9 6.9-8.3 12.3-1-2.4-5.4-1.5-6.3 1-0.9 2.8 0.7 5.7 2.2 8.1 5.3 8.8-10.5 23.7-5.2 32.5l0.8 1c-10.2-4.8 2.7-19.7-1.6-30.1-0.9-0.2-4 3.2-8.2 3.9-7.4 1.2-21.3-26.8-15.6-33.1-4.1-4-3.4-4.6-9.1-3.9-7.4 0.9-11 9.9-10.8 17.4 0.2 7.5 2.5 15.2 0.4 22.4q-0.8 2.3-2 4.3-1.3 2.1-3 3.8-1.7 1.7-3.7 3-2.1 1.3-4.4 2.1-1.1 0.4-2.3 0.7-1.2 0.2-2.4 0.4-1.3 0.1-2.5 0.2-1.2 0-2.4-0.1-0.2-0.9-0.3-1.8-0.1-0.9-0.1-1.8 0-0.9 0.1-1.8 0.1-0.9 0.3-1.8-0.5 0.8-0.9 1.6-0.5 0.8-0.8 1.7-0.4 0.8-0.7 1.7-0.3 0.9-0.5 1.8-0.8-0.2-1.6-0.4-0.8-0.2-1.6-0.4-0.8-0.2-1.5-0.5-0.8-0.3-1.5-0.7-1.9-0.8-3.6-1.9-1.7-1.1-3.1-2.5-1.5-1.4-2.7-3-1.3-1.6-2.2-3.4-0.9-1.8-1.3-3.7z"/>
	<path id="Layer" class="s2" d="m289.8 356.7q0.2-0.2 0.5-0.3 0.2-0.2 0.4-0.3 0.2-0.2 0.5-0.3 0.2-0.1 0.4-0.2c10.4-5.2 42.7-18.6 67.9-18.1 48.6 1.1 110.4 54.7 96 90.7-11 27.3-65.4 42.9-105.1 30.4-55.6-17.4-77.5-88.4-60.6-101.9z"/>
	<path id="Layer" class="s6" d="m88.3 553.9c-15.9-3-29.9-74.4 1.3-109.6 10.7-12.1 24-17.3 41.8-22.2 102.1-28.1 180-1.3 190.5 5.2 10.4 6.5 28.7 104.9 5.3 118.8-13.2 7.8-39.3 11.8-52.2 2.6-19.1-13.4 12.9-48.3-1.3-71.8-16.2-26.6-101.1-35.6-143.8-9.1-45.4 28.2 48.3 103.1-41.6 86.1z"/>
	<path id="Layer" class="s7" d="m194.4 432.4h-60.7c-14.9-14.3-25.6-28.1-17-39.6 0-1.6 0.3-3.2 0.9-4.8 0.6-1.5 1.5-2.8 2.7-4 1.2-1.1 2.5-2.1 4-2.7 1.5-0.6 3.2-0.9 4.8-0.9h69.9c1.6 0 3.3 0.3 4.8 0.9 1.5 0.6 2.9 1.6 4 2.7 1.2 1.2 2.1 2.5 2.7 4 0.6 1.6 0.9 3.2 0.9 4.8 3.3 13.1-2.5 26.3-17 39.6z"/>
	<path id="Layer" class="s7" d="m184 367.1q0.2 1.1 0.3 2.3 0.2 1.2 0.2 2.4 0.1 1.2 0.1 2.4-1.3 1.5-2.6 3.1 0 0 0 0 0 0 0 0 0 0.1 0 0.1-0.1 0-0.1 0-2.5 3.1-4.9 6.1 0.7 0.1 1.5 0.2 0.8 0.1 1.5 0.2 0.8 0 1.6 0 0.8 0 1.5 0-0.1 0.4-0.2 0.7h-22.3q-1-2.2-1.9-4.4-0.9-2.2-1.7-4.5-0.8-2.3-1.4-4.6-0.7-2.3-1.2-4.7c-13.2 4.5-25.5 3-28.3-12.4q-1.1-1.2-2.1-2.5-1-1.3-1.9-2.7-0.9-1.4-1.6-2.8-0.8-1.4-1.4-2.9 0.1-0.1 0.1-0.1h0.1c0.8-0.1 1.5-0.4 2-1 0.6-0.5 1-1.2 1.2-1.9 0.1-0.8 0.1-1.5-0.2-2.3-0.3-0.7-0.8-1.3-1.5-1.7q-0.7-0.5-1.5-1-0.4-0.2-0.7-0.3-0.4-0.2-0.7-0.4-0.4-0.2-0.7-0.3-0.4-0.2-0.8-0.3 0-0.1 0-0.2c-0.1-0.8 0-1.7 0.4-2.4 0.3-0.8 0.9-1.4 1.6-1.9 0.7-0.4 1.5-0.7 2.3-0.7 0.9 0 1.7 0.3 2.4 0.7 6.6 4.1 15.2 5.9 21.4 10.9q1.5 1.3 2.8 2.8 1.3 1.6 2.3 3.3 1 1.7 1.7 3.6 0.7 1.8 1.1 3.8v0.2q-0.1-1.8-0.2-3.6-0.1-1.8-0.1-3.5 0-1.8 0.1-3.6 0-1.8 0.2-3.6 0.2-3 0.6-6 0.5-2.9 1.1-5.9 0.6-3 1.4-5.9 0.9-2.9 1.9-5.7-0.5-0.2-1-0.5c-14.1-0.3-24-6.7-19.4-24.4q-0.2-0.7-0.3-1.4-0.2-0.7-0.3-1.4-0.1-0.8-0.2-1.5-0.1-0.7-0.2-1.4h0.1c0.8-0.1 1.5-0.5 2-1 0.6-0.5 1-1.2 1.1-1.9 0.2-0.8 0.1-1.6-0.2-2.3-0.2-0.7-0.7-1.3-1.4-1.7q-0.7-0.5-1.5-1 0-0.1 0-0.2c0.7-6.9 9.5-9.2 13.8-3.8 3.6 4.5 7.7 8.9 9.8 14.1q0.8 2.1 1.4 4.3 0.5 2.2 0.8 4.4 0.3 2.2 0.3 4.4 0 2.3-0.2 4.5 1-2 2.1-3.9 1.1-2 2.3-3.9 1.1-1.8 2.4-3.7 1.3-1.8 2.7-3.6 0.3-0.3 0.6-0.7c-2-3.1-2.3-7.1-4.5-10-3.5-4.5-3.4-9.3 2.3-12.1 2.6-6.8 7.7-7.7 11.4-2.7 0.7 1 2 1.5 2.6 2.6-0.3 0.4 1 7.8 1.5 7.8q-0.1 0.6-0.3 1.3-0.1 0.6-0.4 1.2-0.2 0.7-0.4 1.3-0.3 0.6-0.6 1.2-0.8 1.6-1.8 3.1-1.1 1.5-2.4 2.9-1.2 1.3-2.7 2.4-1.5 1.1-3.1 2-3.3 4.2-6.1 8.7-2.9 4.5-5.1 9.4-2.3 4.8-4 9.9-1.6 5.1-2.7 10.3-0.8 3.9-1.2 7.8-0.2 1.2-0.3 2.4-0.1 1.2-0.1 2.4-0.1 1.2-0.1 2.4-0.1 1.2-0.1 2.4 0 4.8 0.5 9.6 0.6 4.8 1.6 9.5 1 4.6 2.5 9.2 1.6 4.5 3.6 8.9-0.3-1-0.4-1.9-0.1-1-0.2-1.9 0-1 0-2 0-0.9 0.2-1.9c0.7-5.8 3.6-11.3 5.8-16.7 0.6-1.4 1.6-2.6 2.8-3.4 1.2-0.8 2.7-1.3 4.2-1.3 1.5 0 2.9 0.4 4.2 1.3 1.2 0.8 2.2 1.9 2.8 3.3q0 0.1 0 0.2l-0.2 0.8c-0.4 0.3-0.7 0.9-0.8 1.4-0.1 0.6-0.1 1.2 0.1 1.7 0.3 0.5 0.7 1 1.1 1.3 0.5 0.3 1.1 0.4 1.7 0.4q0.3 1.2 0.5 2.4z"/>
	<path id="Layer" fill-rule="evenodd" class="s7" d="m253.6 385.5q-0.4-1.1-0.3-2.2 0.1-1.2 0.7-2.2 0.6-1 1.6-1.6 0.9-0.7 2.1-0.9 0.1 0 0.2-0.1 0.1 0 0.2 0 0.1 0 0.2 0 0.1 0 0.2 0l34.2-0.9q0.6 0 1.1 0.1 0.6 0.1 1.1 0.4 0.6 0.2 1 0.5 0.5 0.3 0.9 0.8 0.2-0.1 0.3-0.1 0.2 0 0.4 0 0.2-0.1 0.4-0.1 0.2 0 0.3 0c2.2 0 4.3 0.8 5.8 2.2 1.6 1.5 2.5 3.6 2.6 5.7 0 2.2-0.8 4.2-2.3 5.8-1.5 1.6-3.5 2.5-5.7 2.5q-0.4 0-0.9 0-0.4 0-0.9-0.1-0.4-0.1-0.9-0.3-0.4-0.1-0.8-0.3l-3.2 33.6q-0.2 0.9-0.7 1.6-0.4 0.7-1.1 1.2-0.7 0.6-1.5 0.8-0.8 0.3-1.7 0.3l-22.2 0.6q-0.9 0-1.7-0.2-0.8-0.3-1.5-0.8-0.7-0.4-1.2-1.1-0.5-0.7-0.8-1.5zm42.8 7.2q0.4 0.1 0.8 0.2 0.3 0.1 0.7 0.1 0.4 0.1 0.7 0.1c1.6-0.1 3-0.7 4.1-1.8 1-1.1 1.6-2.6 1.6-4.2-0.1-1.5-0.7-3-1.8-4-1.1-1.1-2.6-1.7-4.2-1.6-0.1 0-0.2 0-0.3 0q0.1 0.4 0.2 0.7 0 0.4 0 0.7 0 0.4 0 0.8-0.1 0.3-0.2 0.7l-2.2 8q0.3 0.1 0.6 0.3z"/>
	<path id="Layer" class="s8" d="m257.9 378.5q0.1 0 0.2 0 0.1 0 0.2 0 0.1 0 0.2 0l34.2-0.9q0.2 0 0.4 0 0.2 0 0.4 0 0.2 0.1 0.4 0.1 0.2 0.1 0.3 0.1c-1.3 3.8-8.7 7-17.8 7.4-9.8 0.5-18-2.4-18.7-6.6q0.1 0 0.2-0.1z"/>
	<path id="Layer" class="s9" d="m0.3 555.2c-0.2-0.3-0.3-0.6-0.3-0.9 0-0.3 0.1-0.6 0.3-0.8 0.3-0.2 0.6-0.4 0.9-0.4l748.7 0.3c0.4 0 0.7 0.2 0.9 0.4 0.2 0.2 0.3 0.5 0.3 0.8 0 0.4-0.1 0.7-0.3 0.9-0.2 0.2-0.5 0.3-0.9 0.3l-748.7-0.3c-0.3 0-0.6-0.1-0.9-0.3z"/>
	<path id="Layer" class="s3" d="m421.3 289.4q1.5 0 2.9 0.5 1.4 0.6 2.5 1.6 1 1 1.6 2.4 0.6 1.3 0.7 2.8 0 1.3-0.4 2.5-0.4 1.3-1.2 2.3-0.8 1-1.9 1.8-1 0.7-2.3 1l-30.1 22.5-2.9-14.4 23.5-13.9q0-0.1 0-0.3 0-0.1-0.1-0.3 0-0.1 0-0.3 0-0.1 0-0.3 0-1.5 0.6-2.9 0.5-1.5 1.6-2.6 1-1.1 2.4-1.7 1.4-0.6 2.9-0.7 0.1 0 0.2 0z"/>
	<path id="Layer" class="s1" d="m401.9 322.5c-0.6-0.9-0.9-1.2-1.1-1.1-0.3 0.2 0 3.2-2.6 8.4-3.6 7.3-41.8 18.4-41.8 18.4l-4.7-8.6-20.7-37.8-7.1-30.4q-0.1-0.4-0.2-0.8-0.1-0.4-0.1-0.8 0-0.4-0.1-0.8 0-0.4 0-0.8 2.4-1.7 4.9-3.2 2.4-1.6 4.9-3.1 2.6-1.4 5.2-2.7 2.5-1.4 5.2-2.6 1 0.6 2 1.4 0.9 0.7 1.7 1.7 0.7 0.9 1.3 1.9 0.6 1.1 1.1 2.2l14.2 39.9 5.7 16c0 0 10-7.2 13.6-5.9 3.7 1.4 4.7-0.5 2.3-6.4-2.3-6 1.2 0.1 5.4 0.5 4.1 0.4 0 0 1.9-2.5 2-2.5 14.7-3.9 14.7-3.9l0.2 0.5 5 10.1 1.4 2.9c0 0-5.3 5.7-6.5 6.8-1.3 1.2-1.7 1.1-1 2.4 0.6 1.3-2.6 1.2-4.8-1.7z"/>
</svg>